<?xml version="1.0" encoding="UTF-8"?>
<svg width="24px" height="24px" viewBox="0 0 24 24" version="1.1" xmlns="http://www.w3.org/2000/svg" xmlns:xlink="http://www.w3.org/1999/xlink">
    <!-- Generator: Sketch 46 (44423) - http://www.bohemiancoding.com/sketch -->
    <title>Warning 24</title>
    <desc>Created with Sketch.</desc>
    <defs></defs>
    <g id="Page-1" stroke="none" stroke-width="1" fill="none" fill-rule="evenodd">
        <g id="1280px-copy-5" transform="translate(-800.000000, -461.000000)" fill="#000000">
            <g id="Group-2" transform="translate(800.000000, 457.000000)">
                <path d="M23.7557379,24.6812079 C24.1134645,25.3968066 24.0768788,26.2313329 23.6551273,26.9123714 C23.234392,27.5934099 22.5057272,28 21.7059237,28 L2.29417279,28 C1.49436923,28 0.765704477,27.5934099 0.343952914,26.9123714 C-0.0767823805,26.2313329 -0.113368058,25.3968066 0.244358569,24.6822244 L9.94972587,5.26652831 C10.3409894,4.48485875 11.1265652,4 12.0005564,4 C12.8745476,4 13.6601234,4.48485875 14.0503706,5.26652831 L23.7557379,24.6812079 Z M21.7059237,26.4752869 C22.2770667,26.4752869 22.6480049,25.87455 22.3929214,25.3632629 L12.6865378,5.94858329 C12.5452765,5.66498666 12.2729164,5.52471306 12.0005564,5.52471306 C11.72718,5.52471306 11.45482,5.66498666 11.3135586,5.94858329 L1.60819134,25.3632629 C1.35310786,25.87455 1.72404598,26.4752869 2.29417279,26.4752869 L21.7059237,26.4752869 Z M12.0011661,21.2003896 C11.6119352,21.2003896 11.2958756,20.8842658 11.2958756,20.4959722 L11.2958756,13.8736352 C11.2958756,13.4843251 11.6119352,13.1692177 12.0011661,13.1692177 C12.3903971,13.1692177 12.7064567,13.4843251 12.7064567,13.8736352 L12.7064567,20.4959722 C12.7064567,20.8842658 12.3903971,21.2003896 12.0011661,21.2003896 Z M12.0011661,22.8044894 C12.4859264,22.8044894 12.8792224,23.1988819 12.8792224,23.6817077 C12.8792224,24.1665664 12.4859264,24.5609589 12.0011661,24.5609589 C11.5164059,24.5609589 11.1231099,24.1665664 11.1231099,23.6817077 C11.1231099,23.1988819 11.5164059,22.8044894 12.0011661,22.8044894 Z" id="Warning-24"></path>
            </g>
        </g>
    </g>
</svg>